<svg xmlns="http://www.w3.org/2000/svg" viewBox="0 0 309 64"><defs><style>.cls-2{fill:#fff}</style><linearGradient id="linear-gradient" x1="3993.957" y1="-9565.845" x2="4014.334" y2="-9562.252" gradientTransform="rotate(-135 4011.88 -3946)" gradientUnits="userSpaceOnUse"><stop offset=".2" stop-color="#fff" stop-opacity="0"/><stop offset=".287" stop-color="#fff" stop-opacity=".03"/><stop offset=".501" stop-color="#fff" stop-opacity=".2"/><stop offset=".793" stop-color="#fff" stop-opacity=".742"/><stop offset="1" stop-color="#fff"/></linearGradient><linearGradient id="linear-gradient-2" x1="27.679" y1="610.033" x2="39.623" y2="603.137" gradientTransform="translate(-5.791 -567.865)" gradientUnits="userSpaceOnUse"><stop offset=".08" stop-color="#fff"/><stop offset=".753" stop-color="#fff" stop-opacity=".07"/><stop offset=".875" stop-color="#fff" stop-opacity="0"/></linearGradient><linearGradient id="linear-gradient-3" x1="54.981" y1="611.334" x2="73.15" y2="596.089" gradientTransform="translate(-5.791 -567.865)" gradientUnits="userSpaceOnUse"><stop offset=".138" stop-color="#fff" stop-opacity="0"/><stop offset=".32" stop-color="#fff" stop-opacity=".07"/><stop offset=".847" stop-color="#fff" stop-opacity=".764"/><stop offset=".947" stop-color="#fff"/></linearGradient></defs><path fill="#3d70b2" d="M0 0h309v64H0z" id="Layer_2" data-name="Layer 2"/><g id="Layer_1" data-name="Layer 1"><path class="cls-2" d="M29.954 28.045a.981.981 0 0 1-.49-.132l-4.688-2.707a.982.982 0 0 1 .981-1.7l4.688 2.707a.982.982 0 0 1-.492 1.833zM37.974 20.027a.981.981 0 0 1-.852-.491l-2.707-4.689a.982.982 0 0 1 1.7-.982l2.707 4.689a.982.982 0 0 1-.849 1.473zM48.924 17.093a.983.983 0 0 1-.982-.983V10.7a.983.983 0 0 1 1.965 0v5.41a.983.983 0 0 1-.983.983zM59.875 20.027a.981.981 0 0 1-.849-1.473l2.707-4.689a.982.982 0 0 1 1.7.982l-2.707 4.689a.981.981 0 0 1-.851.491zM67.894 28.045a.982.982 0 0 1-.492-1.833l4.689-2.707a.982.982 0 0 1 .983 1.7l-4.688 2.707a.982.982 0 0 1-.492.133z"/><path d="M36.456 50.482a17.633 17.633 0 0 1 24.936-24.937 18.1 18.1 0 0 1 1.4 1.579c.3.385.591.784.857 1.187l-1.64 1.082a15.86 15.86 0 0 0-.761-1.054A15.971 15.971 0 0 0 60 26.935a15.668 15.668 0 0 0-22.154 22.158z" fill="url(#linear-gradient)"/><path class="cls-2" d="M61.494 55.647H34.357A11.389 11.389 0 0 1 23.046 44.18v-.007l1.965.015a9.424 9.424 0 0 0 9.353 9.494h27.122a11.505 11.505 0 0 0 8.581-19.176l1.464-1.31a13.47 13.47 0 0 1-10.037 22.451z"/><path d="M25.011 44.188l-1.965-.015a11.376 11.376 0 0 1 9.49-11.146l.328 1.937a9.414 9.414 0 0 0-7.853 9.224z" fill="url(#linear-gradient-2)"/><path d="M49.986 42.091l-1.964-.015A13.47 13.47 0 0 1 71.531 33.2l-1.464 1.31a11.506 11.506 0 0 0-20.081 7.585z" fill="url(#linear-gradient-3)"/><path class="cls-2" d="M89.328 26.436h5.333c3.821 0 6.32 2.456 6.32 7.327s-2.5 7.328-6.32 7.328h-5.333zm5.333 12.2c2.058 0 3.38-1.217 3.38-3.716v-2.311c0-2.5-1.322-3.717-3.38-3.717H92.1v9.742zM102.894 35.59c0-3.464 1.869-5.711 5.081-5.711 3.422 0 5 2.519 5 5.522v.882h-7.286v.273a2.435 2.435 0 0 0 2.667 2.646 3.325 3.325 0 0 0 2.792-1.492l1.449 1.618a5.426 5.426 0 0 1-4.535 2.015c-3.236 0-5.168-2.243-5.168-5.753zm2.792-1.133v.168h4.494v-.19c0-1.512-.777-2.54-2.163-2.54a2.327 2.327 0 0 0-2.331 2.562zM115.347 30.131h2.688v1.806h.084a3.035 3.035 0 0 1 3.023-2.058c2.772 0 4.3 2.058 4.3 5.711 0 3.674-1.532 5.753-4.3 5.753a3.1 3.1 0 0 1-3.023-2.079h-.084v6.027h-2.688zm7.286 6.425v-1.889a2.35 2.35 0 0 0-2.352-2.583c-1.281 0-2.246.693-2.246 1.763v3.486c0 1.133.965 1.785 2.246 1.785a2.332 2.332 0 0 0 2.352-2.562zM130.634 41.091a2.376 2.376 0 0 1-2.687-2.645V25.554h2.687v13.4h1.449v2.141zM133.386 35.59c0-3.506 1.952-5.711 5.081-5.711 3.149 0 5.1 2.205 5.1 5.711 0 3.528-1.953 5.753-5.1 5.753-3.129 0-5.081-2.225-5.081-5.753zm7.369 1.029v-2.036c0-1.638-.882-2.541-2.288-2.541-1.386 0-2.268.9-2.268 2.541v2.036c0 1.659.882 2.561 2.268 2.561 1.406 0 2.288-.902 2.288-2.561zM152.474 30.131h2.519l-4.409 12.913a2.832 2.832 0 0 1-3.128 2.247h-1.617v-2.142h1.973l.5-1.532-3.922-11.486h2.667l1.911 5.8.713 2.772h.127l.755-2.772zM165.136 41.091A2.536 2.536 0 0 1 162.3 38.3v-6.049h-1.617v-2.12h.839c.8 0 1.051-.378 1.051-1.134v-1.869h2.414v3h2.246v2.12h-2.246v6.7h2.078v2.141zM168.749 35.59c0-3.506 1.953-5.711 5.082-5.711 3.148 0 5.1 2.205 5.1 5.711 0 3.528-1.954 5.753-5.1 5.753-3.131 0-5.082-2.225-5.082-5.753zm7.37 1.029v-2.036c0-1.638-.882-2.541-2.288-2.541-1.387 0-2.268.9-2.268 2.541v2.036c0 1.659.881 2.561 2.268 2.561 1.406 0 2.288-.902 2.288-2.561zM185.821 41.091v-2.225h1.932v-10.2h-1.932v-2.23h6.656v2.225h-1.953v10.2h1.953v2.225zM195.313 26.436h6.787a3.562 3.562 0 0 1 3.884 3.758c0 2.225-1.281 3.065-2.625 3.149v.126a3.214 3.214 0 0 1 3.171 3.423 3.937 3.937 0 0 1-3.779 4.2h-7.433zm2.772 6.109h3.422a1.445 1.445 0 0 0 1.595-1.553v-.651a1.436 1.436 0 0 0-1.595-1.554h-3.422zm0 6.2h3.863a1.494 1.494 0 0 0 1.68-1.6v-.715a1.509 1.509 0 0 0-1.68-1.617h-3.863zM220.322 30.677h-.084l-1.112 2.223-3.045 5.543-3-5.523-1.155-2.351h-.064v10.522h-2.624V26.436h3.062l3.76 7.164h.063l3.737-7.159h3.086v14.65h-2.624zM230.719 33.869c0-4.935 2.456-7.685 6.319-7.685a5.344 5.344 0 0 1 5.355 3.38l-2.373 1.26a2.9 2.9 0 0 0-2.982-2.184c-2.057 0-3.38 1.491-3.38 3.989v2.31c0 2.52 1.323 3.947 3.38 3.947a3.258 3.258 0 0 0 3.171-2.33l2.247 1.322a5.632 5.632 0 0 1-5.418 3.465c-3.863 0-6.319-2.543-6.319-7.474zM247.351 41.091a2.376 2.376 0 0 1-2.688-2.645V25.554h2.688v13.4h1.449v2.141zM250.1 35.59c0-3.506 1.953-5.711 5.081-5.711 3.15 0 5.1 2.205 5.1 5.711 0 3.528-1.952 5.753-5.1 5.753-3.126 0-5.081-2.225-5.081-5.753zm7.37 1.029v-2.036c0-1.638-.882-2.541-2.289-2.541-1.385 0-2.268.9-2.268 2.541v2.036c0 1.659.883 2.561 2.268 2.561 1.409 0 2.291-.902 2.291-2.561zM269.21 39.264h-.11a2.972 2.972 0 0 1-3.064 2.079c-2.247 0-3.507-1.553-3.507-4.283v-6.929h2.688v6.656c0 1.511.567 2.331 1.847 2.331 1.072 0 2.142-.568 2.142-1.743v-7.244h2.694v10.96h-2.69zM281.81 39.264h-.1a3.078 3.078 0 0 1-3.023 2.079c-2.751 0-4.284-2.079-4.284-5.753 0-3.653 1.533-5.711 4.284-5.711a3.018 3.018 0 0 1 3.023 2.058h.1v-6.383h2.69v15.537h-2.69zm0-1.931v-3.486c0-1.07-.987-1.763-2.267-1.763a2.334 2.334 0 0 0-2.331 2.583v1.889a2.317 2.317 0 0 0 2.331 2.562c1.28 0 2.267-.652 2.267-1.785z"/></g></svg>